<?xml version="1.0" encoding="UTF-8" standalone="no"?><!DOCTYPE svg PUBLIC "-//W3C//DTD SVG 1.1//EN" "http://www.w3.org/Graphics/SVG/1.1/DTD/svg11.dtd"><svg width="100%" height="100%" viewBox="0 0 256 256" version="1.1" xmlns="http://www.w3.org/2000/svg" xmlns:xlink="http://www.w3.org/1999/xlink" xml:space="preserve" xmlns:serif="http://www.serif.com/" style="fill-rule:evenodd;clip-rule:evenodd;stroke-linejoin:round;stroke-miterlimit:2;"><circle cx="128" cy="128" r="128" style="fill:#1c1917;"/><path d="M127.995,119.806l-0,-5.082c1.793,0 3.551,-0.361 5.227,-1.072c4.719,-2.005 7.816,-6.445 8.081,-11.58c0.095,-2.006 -0.261,-3.978 -1.054,-5.848c-2.092,-4.933 -6.899,-8.117 -12.24,-8.117c-1.787,-0 -3.538,0.36 -5.212,1.07c-5.107,2.167 -8.364,7.348 -8.099,12.888l-5.079,0.24c-0.364,-7.653 4.135,-14.81 11.191,-17.806c2.307,-0.979 4.728,-1.475 7.199,-1.475c7.385,-0 14.026,4.402 16.918,11.213c1.077,2.543 1.58,5.336 1.451,8.086c-0.367,7.104 -4.648,13.231 -11.172,16.009c-2.306,0.975 -4.732,1.474 -7.211,1.474" style="fill:#5cba48;fill-rule:nonzero;"/><path d="M147.697,164.018l-2.093,-4.634l8.336,-3.365l-0.983,-15.96c-0.045,-0.734 0.23,-1.449 0.755,-1.967l10.761,-10.577c0.524,-0.517 1.246,-0.784 1.984,-0.721l15.943,1.284l2.76,-6.49l-11.983,-10.599c-0.552,-0.488 -0.865,-1.193 -0.859,-1.93l0.163,-15.079c0.007,-0.737 0.333,-1.434 0.896,-1.911l12.174,-10.34l-2.644,-6.552l-15.941,0.979c-0.733,0.053 -1.453,-0.23 -1.969,-0.754l-10.578,-10.758c-0.516,-0.524 -0.779,-1.251 -0.721,-1.986l1.288,-15.94l-6.508,-2.764l-10.586,11.97c-0.487,0.551 -1.131,0.898 -1.928,0.858l-15.097,-0.144c-0.735,-0.007 -1.431,-0.333 -1.909,-0.895l-10.359,-12.161l-6.536,2.63l0.981,15.941c0.053,0.877 -0.446,1.605 -1.067,2.228c-1.882,1.885 -9.032,8.845 -10.199,10.01c-0.621,0.621 -1.356,1.113 -2.248,1.028l-15.925,-1.27l-2.763,6.49l11.965,10.567c0.552,0.489 0.866,1.193 0.859,1.93l-0.144,15.114c-0.007,0.737 -0.331,1.433 -0.894,1.912l-12.176,10.358l2.645,6.537l15.959,-0.982c0.729,-0.062 1.455,0.231 1.971,0.756l10.561,10.777c0.516,0.528 0.777,1.251 0.717,1.988l-1.284,15.903l8.194,3.496l-1.993,4.674l-9.88,-4.213c-1.007,-0.428 -1.627,-1.453 -1.536,-2.542l1.344,-16.574l-8.941,-9.119l-16.628,1.019c-1.087,0.039 -2.102,-0.568 -2.513,-1.582l-4.016,-9.933c-0.409,-1.014 -0.123,-2.179 0.71,-2.89l12.69,-10.796l0.121,-12.793l-12.47,-11.012c-0.821,-0.724 -1.085,-1.891 -0.657,-2.9l4.198,-9.859c0.426,-1.007 1.438,-1.639 2.54,-1.539l16.362,1.306c1.73,-1.73 7.092,-6.921 9.338,-9.166l-1.007,-16.381c-0.069,-1.09 0.572,-2.104 1.588,-2.513l9.929,-3.999c1.014,-0.407 2.174,-0.121 2.886,0.711l10.793,12.672l12.777,0.122l11.029,-12.471c0.723,-0.82 1.89,-1.086 2.895,-0.657l9.882,4.196c1.007,0.428 1.63,1.453 1.539,2.544l-1.342,16.611l8.952,9.103l16.614,-1.022c1.097,-0.079 2.104,0.571 2.513,1.585l4.018,9.95c0.407,1.014 0.119,2.179 -0.713,2.888l-12.689,10.779l-0.133,12.757l12.482,11.046c0.821,0.726 1.083,1.893 0.656,2.896l-4.197,9.863c-0.428,1.007 -1.444,1.616 -2.544,1.539l-16.607,-1.341l-9.105,8.951l1.025,16.63c0.068,1.096 -0.572,2.107 -1.588,2.518l-9.84,3.965Z" style="fill:#5cba48;fill-rule:nonzero;"/><path d="M124.705,174.409l22.992,-10.393l-2.091,-4.632l-22.917,10.356l-0.004,-0.004l-4.472,1.837l-5.276,-2.637c-0.978,-0.488 -2.159,-0.296 -2.932,0.476l-3.013,3.01c-0.777,0.773 -0.969,1.959 -0.477,2.936l2.549,5.095c-0.605,1.155 -1.107,2.369 -1.5,3.636l-5.404,1.793c-1.041,0.344 -1.739,1.318 -1.739,2.411l0,4.251c0,1.093 0.698,2.065 1.734,2.409l5.607,1.879l1.393,3.375l-2.642,5.293c-0.488,0.985 -0.293,2.165 0.484,2.941l3.013,2.995c0.772,0.765 1.951,0.956 2.927,0.47l5.274,-2.639l3.397,1.408l1.858,5.588c0.344,1.039 1.316,1.737 2.407,1.737l4.252,0c1.093,0 2.063,-0.695 2.411,-1.734l1.873,-5.591l3.382,-1.408l5.293,2.639c0.985,0.49 2.165,0.295 2.937,-0.482l2.994,-3.013c0.768,-0.774 0.96,-1.953 0.472,-2.928l-2.639,-5.276l1.395,-3.38l5.602,-1.87c1.039,-0.346 1.735,-1.318 1.735,-2.411l0,-4.251c0,-1.092 -0.696,-2.064 -1.735,-2.411l-5.602,-1.869l-1.395,-3.381l2.639,-5.276l-4.545,-2.272l-3.158,6.309c-0.33,0.658 -0.356,1.427 -0.074,2.106l2.278,5.522c0.281,0.682 0.84,1.207 1.54,1.44l4.971,1.66l0,0.591l-4.971,1.66c-0.698,0.233 -1.259,0.758 -1.54,1.442l-2.278,5.52c-0.282,0.679 -0.256,1.448 0.074,2.104l2.341,4.678l-0.413,0.417l-4.688,-2.337c-0.66,-0.328 -1.428,-0.356 -2.107,-0.072l-5.52,2.295c-0.681,0.279 -1.206,0.841 -1.437,1.539l-1.658,4.957l-0.588,-0l-1.646,-4.952c-0.232,-0.701 -0.758,-1.265 -1.439,-1.545l-5.539,-2.294c-0.679,-0.284 -1.449,-0.254 -2.109,0.072l-4.676,2.341l-0.416,-0.414l2.339,-4.685c0.326,-0.661 0.353,-1.426 0.074,-2.104l-2.278,-5.52c-0.295,-0.716 -0.905,-1.247 -1.625,-1.463l-4.89,-1.639l0,-0.589l4.948,-1.646c0.834,-0.277 1.462,-0.96 1.669,-1.809c0.419,-1.732 1.088,-3.35 1.99,-4.806c0.461,-0.753 0.502,-1.684 0.108,-2.472l-2.335,-4.671l0.419,-0.421l4.673,2.337c0.658,0.328 1.426,0.353 2.104,0.075l5.539,-2.279" style="fill:#fff;fill-rule:nonzero;"/></svg>