<?xml version="1.0" encoding="UTF-8" standalone="no"?><!DOCTYPE svg PUBLIC "-//W3C//DTD SVG 1.1//EN" "http://www.w3.org/Graphics/SVG/1.1/DTD/svg11.dtd"><svg width="100%" height="100%" viewBox="0 0 1226 406" version="1.1" xmlns="http://www.w3.org/2000/svg" xmlns:xlink="http://www.w3.org/1999/xlink" xml:space="preserve" xmlns:serif="http://www.serif.com/" style="fill-rule:evenodd;clip-rule:evenodd;stroke-linejoin:round;stroke-miterlimit:2;"><path d="M451.996,101.997c3.631,-0.34 6.964,0.494 10,2.5c25.5,25.5 51,51 76.5,76.5c0.333,-23.667 0.667,-47.333 1,-71c2.972,-7.217 8.139,-9.383 15.5,-6.5c1.167,1.167 2.333,2.333 3.5,3.5c1.653,34.582 1.986,69.248 1,104c-3.527,6.398 -8.693,8.231 -15.5,5.5c-26.167,-26.167 -52.333,-52.333 -78.5,-78.5c-0.333,24.667 -0.667,49.333 -1,74c-5.231,7.092 -11.231,7.759 -18,2c-1.653,-35.248 -1.986,-70.582 -1,-106c1.494,-2.814 3.66,-4.814 6.5,-6Z" style="fill:#00509e;fill-rule:nonzero;"/><path d="M618.996,101.997c33.33,-0.167 66.67,0 100,0.5c6.63,3.097 8.8,8.264 6.5,15.5c-1.54,1.878 -3.38,3.378 -5.5,4.5c-34.33,0.667 -68.67,0.667 -103,0c-6.302,-4.171 -7.636,-9.671 -4,-16.5c1.79,-1.816 3.79,-3.149 6,-4Z" style="fill:#00509e;fill-rule:nonzero;"/><path d="M784.996,101.997c4.1,-0.133 7.77,1.033 11,3.5c12.85,13.014 25.85,25.847 39,38.5c13.49,-12.986 26.82,-26.153 40,-39.5c9.35,-4.665 15.35,-1.998 18,8c-0.39,3.177 -1.56,6.01 -3.5,8.5c-13.47,12.47 -26.64,25.304 -39.5,38.5c13.5,13.5 27,27 40.5,40.5c4.44,9.448 1.61,15.448 -8.5,18c-2.99,-0.493 -5.65,-1.66 -8,-3.5c-13.17,-13.167 -26.33,-26.333 -39.5,-39.5c-13.83,13.833 -27.67,27.667 -41.5,41.5c-9.15,3.216 -14.49,0.049 -16,-9.5c0.26,-2.528 1.1,-4.861 2.5,-7c13.35,-13.181 26.51,-26.514 39.5,-40c-12.99,-13.486 -26.15,-26.819 -39.5,-40c-4.27,-8.015 -2.44,-14.015 5.5,-18Z" style="fill:#00509e;fill-rule:nonzero;"/><path d="M950.996,101.997c5.45,-0.525 9.61,1.475 12.5,6c0.5,29.665 0.67,59.331 0.5,89l74,0c-0.17,-29.335 0,-58.669 0.5,-88c6.67,-9.333 13.33,-9.333 20,0c0.99,34.752 0.65,69.418 -1,104c-1.64,2.31 -3.8,3.81 -6.5,4.5c-33.33,0.667 -66.67,0.667 -100,0c-4.27,-1.27 -6.77,-4.104 -7.5,-8.5c-0.67,-32.667 -0.67,-65.333 0,-98c0.92,-4.414 3.42,-7.414 7.5,-9Z" style="fill:#00509e;fill-rule:nonzero;"/><path d="M1118,101.997c33.33,-0.167 66.67,0 100,0.5c6.55,2.73 8.72,7.563 6.5,14.5c-1.17,2.5 -3,4.333 -5.5,5.5c-29.33,0.5 -58.66,0.667 -88,0.5l0,27c28.04,0.325 56.04,-0.009 84,-1c4.08,0.579 7.24,2.579 9.5,6c0.67,19 0.67,38 0,57c-1.25,2.881 -3.42,4.714 -6.5,5.5c-33.33,0.667 -66.67,0.667 -100,0c-7.21,-2.248 -9.71,-7.082 -7.5,-14.5c1.17,-2.5 3,-4.333 5.5,-5.5c29.33,-0.5 58.66,-0.667 88,-0.5l0,-27c-29.67,0.167 -59.34,0 -89,-0.5c-1.88,-1.543 -3.38,-3.376 -4.5,-5.5c-0.67,-18.667 -0.67,-37.333 0,-56c1.71,-3.09 4.21,-5.09 7.5,-6Z" style="fill:#00509e;fill-rule:nonzero;"/><path d="M616.996,149.997c34.67,-0.167 69.33,0 104,0.5c4.77,3.655 6.27,8.488 4.5,14.5c-1.17,1.833 -2.67,3.333 -4.5,4.5c-34.67,0.667 -69.33,0.667 -104,0c-6.042,-3.748 -7.542,-8.915 -4.5,-15.5c1.397,-1.57 2.897,-2.904 4.5,-4Z" style="fill:#00509e;fill-rule:nonzero;"/><path d="M616.996,196.997c34.33,-0.167 68.67,0 103,0.5c5.73,3.18 7.57,8.013 5.5,14.5c-1.25,2.881 -3.42,4.714 -6.5,5.5c-33.33,0.667 -66.67,0.667 -100,0c-7.814,-3.143 -9.981,-8.643 -6.5,-16.5c1.397,-1.57 2.897,-2.904 4.5,-4Z" style="fill:#00509e;fill-rule:nonzero;"/><path d="M456.996,259.997c3.937,-0.293 7.77,0.04 11.5,1c4.808,13.257 9.308,26.59 13.5,40c-8.07,1.984 -12.07,-1.016 -12,-9c-4.679,-0.166 -9.345,0.001 -14,0.5c-1.093,2.443 -2.093,4.943 -3,7.5c-3.268,0.987 -6.602,1.32 -10,1c4.383,-13.766 9.05,-27.433 14,-41Zm5,10c1.835,4.156 3.501,8.489 5,13c-2.946,1.155 -5.946,1.321 -9,0.5c2.03,-4.286 3.363,-8.786 4,-13.5Z" style="fill:#00509e;"/><path d="M683.996,259.997c6.43,-0.71 12.43,0.457 18,3.5c-0.81,2.088 -1.81,4.088 -3,6c-3.17,-0.078 -6.33,-0.578 -9.5,-1.5c-5.22,1.487 -5.72,3.987 -1.5,7.5c6.02,1.735 10.52,5.235 13.5,10.5c0.95,10.721 -4.05,16.054 -15,16c-3.64,0.018 -7.14,-0.648 -10.5,-2c-0.98,-2.928 -1.32,-5.928 -1,-9c3.89,1.306 7.89,2.306 12,3c4.44,-0.269 5.77,-2.436 4,-6.5c-3.83,-1.746 -7.49,-3.746 -11,-6c-7.44,-8.873 -6.11,-16.039 4,-21.5Z" style="fill:#00509e;fill-rule:nonzero;"/><path d="M817.996,259.997c6.43,-0.71 12.43,0.457 18,3.5c-0.81,2.088 -1.81,4.088 -3,6c-3.17,-0.078 -6.33,-0.578 -9.5,-1.5c-5.18,1.563 -5.68,4.063 -1.5,7.5c6.02,1.735 10.52,5.235 13.5,10.5c0.95,10.721 -4.05,16.054 -15,16c-3.64,0.018 -7.14,-0.648 -10.5,-2c-0.98,-2.928 -1.32,-5.928 -1,-9c3.89,1.306 7.89,2.306 12,3c4.44,-0.269 5.77,-2.436 4,-6.5c-3.83,-1.746 -7.49,-3.746 -11,-6c-7.44,-8.944 -6.11,-16.11 4,-21.5Z" style="fill:#00509e;fill-rule:nonzero;"/><path d="M490.996,260.997c7.753,-0.396 15.42,0.104 23,1.5c4.653,3.788 6.153,8.622 4.5,14.5c-1.14,3.121 -2.973,5.621 -5.5,7.5c3.121,5.291 6.454,10.457 10,15.5c-3.667,1.333 -7.333,1.333 -11,0c-2.416,-4.501 -5.083,-8.834 -8,-13c-1.189,-0.929 -2.522,-1.262 -4,-1l-0,15l-9,0l-0,-40Zm9,8c2.357,-0.163 4.69,0.003 7,0.5c3.932,2.621 3.932,5.287 -0,8c-2.31,0.497 -4.643,0.663 -7,0.5l-0,-9Z" style="fill:#00509e;"/><path d="M531.996,260.997c8.417,-0.406 16.751,0.094 25,1.5c3.867,3.66 5.034,8.16 3.5,13.5c-0.5,1.833 -1.667,3 -3.5,3.5c6.612,6.594 6.612,13.261 0,20c-8.249,1.406 -16.583,1.906 -25,1.5l0,-40Zm9,8c3.018,-0.165 6.018,0.002 9,0.5c2.667,2 2.667,4 0,6c-2.982,0.498 -5.982,0.665 -9,0.5l0,-7Zm0,15c3.757,-0.429 7.257,0.237 10.5,2c0.896,2.525 0.396,4.692 -1.5,6.5c-2.982,0.498 -5.982,0.665 -9,0.5l0,-9Z" style="fill:#00509e;"/><path d="M572.996,260.997l24,0l0,8l-14,0l0,7l13,0l0,8l-13,0l0,9l14,0l0,8l-24,0l0,-40Z" style="fill:#00509e;fill-rule:nonzero;"/><rect x="608.996" y="260.997" width="9" height="40" style="fill:#00509e;"/><path d="M631.996,260.997c6.675,-0.166 13.34,0 20,0.5c9.52,2.689 14.19,9.022 14,19c0.49,10.378 -4.18,17.044 -14,20c-6.66,0.5 -13.325,0.666 -20,0.5l0,-40Zm9,8c9.53,-1.913 14.53,1.92 15,11.5c-0.24,9.796 -5.24,13.963 -15,12.5l0,-24Z" style="fill:#00509e;"/><path d="M711.996,260.997l10,0l0,32l16,0l0,8l-26,0l0,-40Z" style="fill:#00509e;fill-rule:nonzero;"/><rect x="747.996" y="260.997" width="10" height="40" style="fill:#00509e;"/><path d="M765.996,260.997l10,0c2.52,9.737 5.36,19.404 8.5,29c2.74,-9.715 5.57,-19.381 8.5,-29c3.4,-0.32 6.73,0.013 10,1c-4.27,12.296 -8.43,24.63 -12.5,37c-1.7,1.233 -3.7,1.9 -6,2c-2.3,-0.1 -4.3,-0.767 -6,-2c-4.28,-12.665 -8.44,-25.332 -12.5,-38Z" style="fill:#00509e;fill-rule:nonzero;"/><path d="M845.996,260.997c4.38,-0.326 8.72,0.008 13,1c4.83,8.333 9.67,16.667 14.5,25c0.5,-8.66 0.67,-17.327 0.5,-26l9,0l0,40c-4.38,0.326 -8.72,-0.008 -13,-1c-4.63,-8.463 -9.47,-16.796 -14.5,-25c-0.5,8.66 -0.67,17.327 -0.5,26l-9,0l0,-40Z" style="fill:#00509e;fill-rule:nonzero;"/><path d="M895.996,260.997l24,0l0,8l-15,0l0,7l14,0l0,8l-14,0l0,9l15,0l0,8l-24,0l0,-40Z" style="fill:#00509e;fill-rule:nonzero;"/><path d="M927.996,260.997l31,0l0,8l-11,0l0,32l-10,0l0,-32l-10,0l0,-8Z" style="fill:#00509e;fill-rule:nonzero;"/><path d="M963.996,260.997l31,0l0,8l-11,0l0,32l-9,0l0,-32l-11,0l0,-8Z" style="fill:#00509e;fill-rule:nonzero;"/><path d="M999.996,260.997c3.28,-0.284 6.44,0.049 9.5,1c3.2,9.272 6.2,18.605 9,28c2.74,-9.715 5.57,-19.381 8.5,-29c3.4,-0.32 6.73,0.013 10,1c-4.54,12.961 -8.88,25.961 -13,39c-3.73,0.323 -7.39,-0.011 -11,-1c-4.94,-12.814 -9.27,-25.814 -13,-39Z" style="fill:#00509e;fill-rule:nonzero;"/><path d="M1045,260.997l24,0l0,8l-14,0l0,7l13,0l0,8l-13,0l0,9l14,0l0,8l-24,0l0,-40Z" style="fill:#00509e;fill-rule:nonzero;"/><path d="M1081,260.997c7.75,-0.396 15.42,0.104 23,1.5c4.71,4.14 6.21,9.306 4.5,15.5c-1.31,2.476 -3.14,4.476 -5.5,6c3.29,5.758 6.96,11.258 11,16.5c-3.67,0.667 -7.33,0.667 -11,0c-3.21,-4.247 -6.04,-8.747 -8.5,-13.5c-1.36,-0.88 -2.86,-1.214 -4.5,-1l0,15l-9,0l0,-40Zm9,8c2.36,-0.163 4.69,0.003 7,0.5c3.79,2.503 3.79,5.17 0,8c-2.31,0.497 -4.64,0.663 -7,0.5l0,-9Z" style="fill:#00509e;"/><path d="M1122,260.997l9,0c-0.17,5.344 0,10.677 0.5,16c3.81,-5.441 7.97,-10.608 12.5,-15.5c3.67,-0.667 7.33,-0.667 11,0c-4.29,5.958 -8.96,11.624 -14,17c4.67,7.333 9.33,14.667 14,22c-3.67,0.667 -7.33,0.667 -11,0c-3.21,-4.247 -6.04,-8.747 -8.5,-13.5c-1.33,-1.333 -2.67,-1.333 -4,0c-0.5,4.655 -0.67,9.321 -0.5,14l-9,0l0,-40Z" style="fill:#00509e;fill-rule:nonzero;"/><path d="M1163,260.997l24,0l0,8l-14,0l0,7l13,0l0,8l-13,0l0,9l14,0l0,8l-24,0l0,-40Z" style="fill:#00509e;fill-rule:nonzero;"/><path d="M1195,260.997l31,0l0,8l-11,0l0,32l-9,0l0,-32l-11,0l0,-8Z" style="fill:#00509e;fill-rule:nonzero;"/><path d="M180.434,0.059c1.102,-0.019 2.204,-0.039 3.34,-0.059c9.275,1.236 17.341,6.299 25.348,10.872c1.629,0.921 1.629,0.921 3.291,1.861c9.378,5.321 18.692,10.748 27.994,16.201c6.305,3.695 12.632,7.351 18.965,11c1.08,0.623 2.16,1.245 3.273,1.886c2.189,1.262 4.379,2.524 6.569,3.785c6.51,3.751 13.016,7.507 19.523,11.262c5.465,3.153 10.931,6.304 16.4,9.45c6.459,3.716 12.912,7.444 19.36,11.18c1.049,0.607 2.098,1.214 3.179,1.839c3.027,1.756 6.05,3.519 9.071,5.286c1.348,0.78 1.348,0.78 2.723,1.576c6.522,3.832 12.349,7.432 16.277,14.111c0.479,0.79 0.959,1.58 1.453,2.395c2.807,6.046 3.547,11.834 3.557,18.445c0.004,0.726 0.008,1.453 0.012,2.202c0.01,2.412 0.006,4.823 0.002,7.235c0.005,1.738 0.01,3.477 0.016,5.216c0.013,4.706 0.014,9.413 0.011,14.12c-0.001,3.936 0.004,7.872 0.009,11.808c0.011,9.29 0.011,18.58 0.005,27.871c-0.006,9.568 0.006,19.135 0.028,28.703c0.017,8.23 0.023,16.46 0.02,24.689c-0.002,4.909 0.001,9.817 0.015,14.726c0.012,4.618 0.01,9.235 -0.003,13.853c-0.002,1.689 0.001,3.378 0.009,5.067c0.059,12.863 -0.912,23.608 -9.384,33.858c-6.174,5.617 -13.264,9.607 -20.563,13.562c-2.233,1.23 -4.465,2.462 -6.695,3.695c-1.126,0.622 -2.252,1.244 -3.411,1.884c-5.131,2.862 -10.202,5.823 -15.269,8.796c-1.991,1.167 -3.982,2.333 -5.973,3.5c-0.996,0.584 -1.993,1.168 -3.02,1.77c-5.303,3.097 -10.623,6.164 -15.944,9.23c-1.081,0.623 -2.161,1.245 -3.274,1.886c-2.189,1.262 -4.379,2.524 -6.569,3.785c-5.429,3.128 -10.856,6.26 -16.282,9.392c-2.161,1.246 -4.321,2.492 -6.481,3.738c-4.399,2.538 -8.797,5.077 -13.195,7.617c-5.406,3.122 -10.814,6.239 -16.223,9.354c-3.068,1.771 -6.13,3.55 -9.191,5.33c-1.887,1.091 -3.774,2.182 -5.66,3.273c-0.852,0.498 -1.703,0.996 -2.58,1.509c-6.817,3.928 -12.299,5.982 -20.295,6.116c-1.292,0.04 -2.584,0.08 -3.915,0.121c-9.969,-0.655 -19.241,-6.912 -27.586,-11.933c-2.108,-1.25 -4.218,-2.499 -6.328,-3.747c-1.617,-0.96 -1.617,-0.96 -3.267,-1.941c-5.36,-3.167 -10.757,-6.27 -16.155,-9.375c-2.187,-1.26 -4.375,-2.521 -6.562,-3.781c-1.628,-0.938 -1.628,-0.938 -3.289,-1.895c-3.238,-1.866 -6.475,-3.735 -9.711,-5.605c-10.622,-6.137 -21.255,-12.254 -31.911,-18.331c-10.422,-5.943 -20.822,-11.924 -31.169,-17.998c-4.629,-2.716 -9.267,-5.405 -13.951,-8.023c-0.862,-0.485 -1.724,-0.971 -2.611,-1.471c-1.586,-0.892 -3.176,-1.774 -4.772,-2.645c-6.85,-3.869 -12.642,-8.685 -16.024,-15.938c-0.389,-0.807 -0.778,-1.614 -1.179,-2.446c-1.914,-4.919 -2.076,-9.54 -2.093,-14.79c-0.003,-0.732 -0.007,-1.463 -0.011,-2.217c-0.011,-2.446 -0.015,-4.893 -0.019,-7.339c-0.006,-1.756 -0.012,-3.513 -0.019,-5.269c-0.021,-5.764 -0.032,-11.527 -0.042,-17.291c-0.004,-1.987 -0.008,-3.975 -0.012,-5.962c-0.019,-9.339 -0.033,-18.678 -0.042,-28.018c-0.01,-10.765 -0.036,-21.529 -0.076,-32.294c-0.03,-8.331 -0.045,-16.661 -0.049,-24.992c-0.002,-4.971 -0.011,-9.941 -0.036,-14.912c-0.023,-4.68 -0.027,-9.36 -0.017,-14.041c0,-1.711 -0.006,-3.422 -0.02,-5.133c-0.091,-11.972 0.834,-22.699 8.688,-32.355c6.673,-6.725 15.635,-11.127 23.865,-15.629c2.233,-1.236 4.464,-2.473 6.695,-3.711c1.076,-0.596 2.151,-1.193 3.259,-1.808c3.84,-2.148 7.638,-4.359 11.421,-6.606c6.97,-4.136 13.978,-8.204 21,-12.25c1.107,-0.638 2.214,-1.276 3.355,-1.933c2.271,-1.308 4.542,-2.616 6.812,-3.924c5.467,-3.149 10.931,-6.302 16.395,-9.455c6.523,-3.764 13.046,-7.527 19.571,-11.286c1.084,-0.625 2.168,-1.249 3.285,-1.893c2.166,-1.248 4.331,-2.495 6.498,-3.74c5.454,-3.142 10.89,-6.311 16.299,-9.531c1.077,-0.638 2.154,-1.276 3.263,-1.933c2.032,-1.206 4.06,-2.418 6.083,-3.639c7.744,-4.586 14.788,-7.905 23.939,-7.916Z" style="fill:url(#_Linear1);fill-rule:nonzero;"/><path d="M262.558,161.559c3.868,2.551 6.704,4.811 8.938,8.938c0.866,4.729 0.797,9.427 0.726,14.218c-0.001,1.386 0,2.772 0.003,4.157c0,2.896 -0.021,5.79 -0.057,8.685c-0.046,3.695 -0.047,7.389 -0.033,11.085c0.007,2.858 -0.007,5.717 -0.026,8.575c-0.012,2.02 -0.009,4.041 -0.006,6.061c-0.107,6.917 -0.329,11.658 -4.607,17.219c-3.537,3.283 -6.282,4.28 -11.001,4.5c-4.709,-0.213 -7.436,-1.277 -11,-4.5c-3.744,-4.96 -5.115,-8.478 -5.192,-14.63c-0.016,-1.155 -0.032,-2.31 -0.049,-3.501c-0.045,-5.288 -0.086,-10.576 -0.109,-15.864c-0.013,-2.787 -0.041,-5.573 -0.082,-8.359c-0.059,-4.022 -0.076,-8.043 -0.091,-12.064c-0.023,-1.24 -0.045,-2.48 -0.069,-3.758c0.018,-7.145 0.6,-12.435 5.592,-17.824c5.299,-4.435 10.58,-5.187 17.063,-2.938Z" style="fill:#03589e;fill-rule:nonzero;"/><path d="M162.652,261.966c1.39,-0.003 2.779,-0.007 4.169,-0.012c2.905,-0.005 5.809,0.003 8.714,0.022c3.713,0.023 7.424,0.009 11.136,-0.015c2.868,-0.014 5.734,-0.009 8.602,0.001c1.368,0.003 2.736,-0.001 4.104,-0.01c13.215,-0.07 13.215,-0.07 18.119,4.545c3.919,4.333 4.643,7.874 4.379,13.535c-0.805,5.237 -2.926,8.341 -7.172,11.625c-5.558,3.01 -11.798,2.431 -17.953,2.407c-1.339,0.005 -2.677,0.011 -4.016,0.018c-2.796,0.011 -5.592,0.006 -8.389,-0.008c-3.565,-0.018 -7.129,0.006 -10.695,0.041c-2.761,0.022 -5.523,0.021 -8.285,0.012c-1.947,-0.001 -3.895,0.019 -5.842,0.039c-7.215,-0.075 -12.56,-0.664 -18.027,-5.669c-3.612,-4.853 -3.848,-10.153 -3,-16c5.249,-10.901 13.305,-10.605 24.156,-10.531Z" style="fill:#03589e;fill-rule:nonzero;"/><path d="M111.496,161.497c4.483,2.325 6.779,4.502 9,9c0.388,2.991 0.388,2.991 0.404,6.347c0.013,1.262 0.025,2.524 0.038,3.823c-0.002,1.369 -0.005,2.738 -0.008,4.107c0.004,1.414 0.009,2.827 0.015,4.24c0.009,2.959 0.007,5.916 -0.003,8.874c-0.011,3.781 0.009,7.561 0.038,11.342c0.018,2.917 0.018,5.835 0.012,8.753c-0,1.393 0.006,2.787 0.019,4.18c0.103,13.477 0.103,13.477 -4.515,18.334c-4.084,3.61 -7.356,4.71 -12.688,4.449c-4.044,-0.786 -7.364,-2.581 -10.312,-5.449c-2.482,-4.254 -3.379,-7.37 -3.404,-12.277c-0.013,-1.222 -0.025,-2.443 -0.038,-3.702c0.002,-1.306 0.005,-2.613 0.008,-3.958c-0.004,-1.368 -0.009,-2.735 -0.015,-4.102c-0.009,-2.858 -0.007,-5.715 0.003,-8.573c0.011,-3.652 -0.009,-7.303 -0.038,-10.955c-0.018,-2.821 -0.018,-5.641 -0.012,-8.462c-0,-1.998 -0.017,-3.995 -0.034,-5.992c0.086,-11.234 0.086,-11.234 4.53,-15.979c5.617,-5.069 9.807,-5.586 17,-4Z" style="fill:#03589e;fill-rule:nonzero;"/><path d="M153.859,111.995c1.897,-0.014 1.897,-0.014 3.833,-0.028c1.372,0.01 2.744,0.021 4.116,0.034c1.416,-0.001 2.832,-0.002 4.248,-0.005c2.962,-0.001 5.924,0.011 8.886,0.034c3.79,0.029 7.579,0.026 11.368,0.013c2.922,-0.007 5.844,0.001 8.766,0.013c1.397,0.005 2.794,0.005 4.191,0.001c1.955,-0.003 3.91,0.016 5.865,0.036c1.111,0.005 2.222,0.01 3.366,0.016c5.086,0.658 8.873,3.435 12.045,7.45c2.019,4.105 1.669,8.521 0.953,12.938c-2.003,4.005 -4.18,6.658 -8,9c-3.209,1.069 -5.562,1.146 -8.937,1.177c-1.833,0.019 -1.833,0.019 -3.702,0.039c-1.335,0.008 -2.671,0.015 -4.006,0.022c-1.01,0.006 -1.01,0.006 -2.042,0.012c-3.566,0.021 -7.133,0.035 -10.699,0.045c-3.676,0.011 -7.35,0.045 -11.026,0.085c-2.833,0.026 -5.667,0.035 -8.501,0.038c-2.01,0.007 -4.021,0.034 -6.032,0.061c-11.326,-0.027 -11.326,-0.027 -16.055,-4.479c-3.938,-4.352 -4.635,-7.918 -4.387,-13.602c0.756,-4.69 3.294,-7.361 6.634,-10.531c3.324,-2.255 5.129,-2.368 9.116,-2.369Z" style="fill:#03589e;fill-rule:nonzero;"/><path d="M192.426,181.102c5.87,3.954 10.083,9.616 12.07,16.395c1.158,7.688 -0.627,13.622 -5,20c-4.457,5.029 -9.783,8.415 -16.535,9.351c-7.126,0.381 -12.673,-1.132 -18.465,-5.351c-5.491,-5.64 -8.28,-11.393 -8.375,-19.313c0.131,-6.832 1.301,-11.355 5.953,-16.398c8.642,-7.98 19.709,-10.082 30.352,-4.684Z" style="fill:#03589e;fill-rule:nonzero;"/><defs><linearGradient id="_Linear1" x1="0" y1="0" x2="1" y2="0" gradientUnits="userSpaceOnUse" gradientTransform="matrix(-346.768,-200.566,200.566,-346.768,355.893,303.461)"><stop offset="0" style="stop-color:#3cbebc;stop-opacity:1"/><stop offset="1" style="stop-color:#03589e;stop-opacity:1"/></linearGradient></defs></svg>